{"title":"Mission Impossible Ghost Protocol 2011 DVDRip XviD-sundox","uid":7146456,"size":740253960,"categoryP":"video","categoryS":"movies","magnet":"?xt=urn:btih:e525285d6d04edd60dd25ff28c240d9a1fa303c8&amp;dn=Mission+Impossible+Ghost+Protocol+2011+DVDRip+XviD-sundox&amp;tr=udp%3A%2F%2Ftracker.openbittorrent.com%3A80&amp;tr=udp%3A%2F%2Fopen.demonii.com%3A1337&amp;tr=udp%3A%2F%2Ftracker.coppersurfer.tk%3A6969&amp;tr=udp%3A%2F%2Fexodus.desync.com%3A6969","seeders":1,"leechers":0,"uploader":"sundox","files":3,"time":1333158799,"description":"Format                           : AVI\nFormat/Info                      : Audio Video Interleave\nFile size                        : 703 MiB\nDuration                         : 2h 12mn\nOverall bit rate                 : 739 Kbps\nWriting application              : VirtualDubMod 1.5.10.2 (build 2540/release)\nWriting library                  : VirtualDub build 32842/release\n\nVideo\nID                               : 0\nFormat                           : MPEG-4 Visual\nFormat profile                   : Advanced Simple@L5\nFormat settings, BVOP            : 2\nFormat settings, QPel            : No\nFormat settings, GMC             : No warppoints\nFormat settings, Matrix          : Default (H.263)\nMuxing mode                      : Packed bitstream\nCodec ID                         : XVID\nCodec ID/Hint                    : XviD\nDuration                         : 2h 12mn\nBit rate                         : 602 Kbps\nWidth                            : 640 pixels\nHeight                           : 272 pixels\nDisplay aspect ratio             : 2.35:1\nFrame rate                       : 23.976 fps\nColor space                      : YUV\nChroma subsampling               : 4:2:0\nBit depth                        : 8 bits\nScan type                        : Progressive\nCompression mode                 : Lossy\nBits/(Pixel*Frame)               : 0.144\nStream size                      : 572 MiB (81%)\nWriting library                  : XviD 64\n\nAudio\nID                               : 1\nFormat                           : MPEG Audio\nFormat version                   : Version 1\nFormat profile                   : Layer 3\nMode                             : Joint stereo\nCodec ID                         : 55\nCodec ID/Hint                    : MP3\nDuration                         : 2h 12mn\nBit rate mode                    : Constant\nBit rate                         : 128 Kbps\nChannel(s)                       : 2 channels\nSampling rate                    : 48.0 KHz\nCompression mode                 : Lossy\nStream size                      : 122 MiB (17%)\nAlignment                        : Split accross interleaves\nInterleave, duration             : 42 ms (1.00 video frame)\nInterleave, preload duration     : 500 ms\n &lt;a href=&quot;\nhttp://i.imgur.com/SCPNn.png&quot; rel=&quot;nofollow&quot; target=&quot;_NEW&quot;&gt;\nhttp://i.imgur.com/SCPNn.png&lt;/a&gt; &lt;a href=&quot;\nhttp://i.imgur.com/zaXHl.png&quot; rel=&quot;nofollow&quot; target=&quot;_NEW&quot;&gt;\nhttp://i.imgur.com/zaXHl.png&lt;/a&gt; &lt;a href=&quot;\nhttp://i.imgur.com/O9mds.png&quot; rel=&quot;nofollow&quot; target=&quot;_NEW&quot;&gt;\nhttp://i.imgur.com/O9mds.png&lt;/a&gt;","torrent":{"xt":"urn:btih:e525285d6d04edd60dd25ff28c240d9a1fa303c8","amp;dn":"Mission+Impossible+Ghost+Protocol+2011+DVDRip+XviD-sundox","amp;tr":["udp%3A%2F%2Ftracker.openbittorrent.com%3A80","udp%3A%2F%2Fopen.demonii.com%3A1337","udp%3A%2F%2Ftracker.coppersurfer.tk%3A6969","udp%3A%2F%2Fexodus.desync.com%3A6969"],"infoHash":"e525285d6d04edd60dd25ff28c240d9a1fa303c8","infoHashBuffer":{"type":"Buffer","data":[229,37,40,93,109,4,237,214,13,210,95,242,140,36,13,154,31,163,3,200]},"announce":[],"urlList":[]}}